<svg id="f80815bb-b681-440d-bd94-0e0ad2c60e6b" data-name="Layer 1" xmlns="http://www.w3.org/2000/svg" width="256" height="256" viewBox="0 0 256 256"><path d="M128.53,66.39c21.32,0,29.6,3.62,33.35,5.5,3.44,1.72,5.5,8.25,6.53,12.38s-.68,5.84-3.43,8.59c-2.26,2.26-10.53,7.52-13.43,9.34a2.22,2.22,0,0,0-1,1.84c-.07,5.27-.33,26.18-.33,27.68,0,4.13,18.91,29.23,26.48,40.57,5.3,8,12.38,18.23,6.53,31.3-5.09,11.37-23.73,23.72-54.67,23.72H128C97,227.31,78.39,215,73.3,203.59c-5.85-13.07,1.23-23.34,6.53-31.3,7.57-11.34,26.48-36.44,26.48-40.57,0-1.5-.26-22.41-.33-27.68a2.22,2.22,0,0,0-1-1.84c-2.9-1.82-11.17-7.08-13.43-9.34-2.75-2.75-4.47-4.47-3.43-8.59s3.09-10.66,6.53-12.38c3.75-1.88,12-5.5,33.35-5.5h.56m0-4.82H128c-21,0-30.34,3.43-35.5,6-4,2-6.94,7.07-9,15.52-1.7,6.77,1.7,10.17,4.7,13.17,2.17,2.17,8.07,6.09,13.07,9.25.14,11.35.28,23.31.3,25.8-1.21,3.54-11.11,17.55-17.08,26-3.29,4.65-6.39,9-8.58,12.32l-.24.37c-5.39,8.07-13.53,20.27-6.68,35.56,3.21,7.18,10.28,13.75,19.9,18.49,10.76,5.29,24.3,8.09,39.16,8.09h.56c14.86,0,28.4-2.8,39.16-8.09,9.62-4.74,16.69-11.31,19.9-18.49,6.85-15.29-1.29-27.49-6.68-35.56l-.24-.37c-2.19-3.28-5.29-7.67-8.58-12.32-6-8.43-15.87-22.44-17.08-26,0-2.49.16-14.45.3-25.8,5-3.16,10.9-7.08,13.07-9.25,3-3,6.4-6.4,4.7-13.17C171,74.65,168,69.57,164,67.58c-5.16-2.58-14.45-6-35.5-6Z" style="fill:#fff"/><path d="M151.56,161.29a17.1,17.1,0,0,0-10.65,4.47c-4.82,4.47-5.51,7.57-5.51,9.63a3.43,3.43,0,0,0,3.79,3.78c2.75,0,3.78-1.72,5.5-3.44s3.44-4.47,7.56-4.47,10,6.19,13.76,6.19,4.47-2.06,4.47-3.78c0-3.44-6.19-12.38-18.92-12.38" style="fill:#fff"/><path d="M104.8,161.29a17.12,17.12,0,0,1,10.66,4.47c4.81,4.47,5.5,7.57,5.5,9.63a3.43,3.43,0,0,1-3.78,3.78c-2.75,0-3.78-1.72-5.5-3.44s-3.44-4.47-7.57-4.47-10,6.19-13.75,6.19-4.47-2.06-4.47-3.78c0-3.44,6.19-12.38,18.91-12.38" style="fill:#fff"/><path d="M105.49,78.08a118.38,118.38,0,0,0,22.35,2.06,131.19,131.19,0,0,0,23-2.06,70,70,0,0,1-45.39,0Z" style="fill:#fff"/><g style="opacity:0.5"><path d="M128,229.72c-31.51,0-51.27-12.63-56.87-25.15-6.3-14.08,1.09-25.16,6.49-33.25l.24-.36c2.17-3.25,5.27-7.63,8.55-12.27,6.4-9.06,17.12-24.21,17.53-27.06,0-1.35-.25-21.2-.33-27.45-4.2-2.63-11.47-7.33-13.76-9.62-2.79-2.79-5.43-5.43-4.07-10.88,1.93-7.73,4.48-12.29,7.79-14C98.48,67.26,107.43,64,128,64h.56C149.07,64,158,67.26,163,69.73c3.31,1.66,5.86,6.22,7.79,14,1.36,5.45-1.28,8.09-4.07,10.88-2.29,2.3-9.56,7-13.76,9.62,0,4.6-.32,26-.32,27.54.4,2.76,11.12,17.91,17.52,27,3.28,4.64,6.38,9,8.55,12.27l.24.36c5.4,8.09,12.79,19.17,6.49,33.25-5.6,12.52-25.36,25.15-56.87,25.15Z" style="fill:#fff"/><path d="M128.53,66.39c21.32,0,29.6,3.62,33.35,5.5,3.44,1.72,5.5,8.25,6.53,12.38s-.68,5.84-3.43,8.59c-2.26,2.26-10.53,7.52-13.43,9.34a2.22,2.22,0,0,0-1,1.84c-.07,5.27-.33,26.18-.33,27.68,0,4.13,18.91,29.23,26.48,40.57,5.3,8,12.38,18.23,6.53,31.3-5.09,11.37-23.73,23.72-54.67,23.72H128C97,227.31,78.39,215,73.3,203.59c-5.85-13.07,1.23-23.34,6.53-31.3,7.57-11.34,26.48-36.44,26.48-40.57,0-1.5-.26-22.41-.33-27.68a2.22,2.22,0,0,0-1-1.84c-2.9-1.82-11.17-7.08-13.43-9.34-2.75-2.75-4.47-4.47-3.43-8.59s3.09-10.66,6.53-12.38c3.75-1.88,12-5.5,33.35-5.5h.56m0-4.82H128c-21,0-30.34,3.43-35.5,6-4,2-6.94,7.07-9,15.52-1.7,6.77,1.7,10.17,4.7,13.17,2.17,2.17,8.07,6.09,13.07,9.25.14,11.35.28,23.31.3,25.8-1.21,3.54-11.11,17.55-17.08,26-3.29,4.65-6.39,9-8.58,12.32l-.24.37c-5.39,8.07-13.53,20.27-6.68,35.56,3.21,7.18,10.28,13.75,19.9,18.49,10.76,5.29,24.3,8.09,39.16,8.09h.56c14.86,0,28.4-2.8,39.16-8.09,9.62-4.74,16.69-11.31,19.9-18.49,6.85-15.29-1.29-27.49-6.68-35.56l-.24-.37c-2.19-3.28-5.29-7.67-8.58-12.32-6-8.43-15.87-22.44-17.08-26,0-2.49.16-14.45.3-25.8,5-3.16,10.9-7.08,13.07-9.25,3-3,6.4-6.4,4.7-13.17C171,74.65,168,69.57,164,67.58c-5.16-2.58-14.45-6-35.5-6Z" style="fill:#fff"/></g><path d="M145.89,29.34s-12.42-9.91-6.39-15.46c5-4.62,8.83,2.57,8.83,2.57s7.93-5.66,9.37,1.69C159.2,25.86,145.89,29.34,145.89,29.34Z" style="fill:#fff;stroke:#fff;stroke-miterlimit:10;stroke-width:2.6837284589430253px"/><path d="M142.11,63.58s-8.89-9.82-3.19-13.57c4.75-3.12,6.92,3.3,6.92,3.3s7.28-3.6,7.47,2.64C153.52,62.5,142.11,63.58,142.11,63.58Z" style="fill:#fff;stroke:#fff;stroke-miterlimit:10;stroke-width:2.2361168845897006px"/><path d="M114,53.09S92.8,51,95.54,40.36c2.27-8.86,11.82-3.56,11.82-3.56s4.78-12.16,11.76-4.94C126.45,39.45,114,53.09,114,53.09Z" style="fill:#fff;stroke:#fff;stroke-miterlimit:10;stroke-width:3.600658543525016px"/></svg>